HIERARCHY
ROOT Hips
{
	OFFSET -0.001795 -0.223333 0.028219
	CHANNELS 6 Xposition Yposition Zposition Zrotation Yrotation Xrotation 
	JOINT LeftUpLeg
	{
		OFFSET 0.069520 -0.091406 -0.006815
		CHANNELS 3 Zrotation Yrotation Xrotation
		JOINT LeftLeg
		{
			OFFSET 0.034277 -0.375199 -0.004496
			CHANNELS 3 Zrotation Yrotation Xrotation
			JOINT LeftFoot
			{
				OFFSET -0.013596 -0.397961 -0.043693
				CHANNELS 3 Zrotation Yrotation Xrotation
				JOINT LeftToe
				{
					OFFSET 0.026358 -0.055791 0.119288
					CHANNELS 3 Zrotation Yrotation Xrotation
					End Site
					{
						OFFSET 0.000000 0.000000 0.000000
					}
				}
			}
		}
	}
	JOINT RightUpLeg
	{
		OFFSET -0.067670 -0.090522 -0.004320
		CHANNELS 3 Zrotation Yrotation Xrotation
		JOINT RightLeg
		{
			OFFSET -0.038290 -0.382569 -0.008850
			CHANNELS 3 Zrotation Yrotation Xrotation
			JOINT RightFoot
			{
				OFFSET 0.015774 -0.398415 -0.042312
				CHANNELS 3 Zrotation Yrotation Xrotation
				JOINT RightToe
				{
					OFFSET -0.025372 -0.048144 0.123348
					CHANNELS 3 Zrotation Yrotation Xrotation
					End Site
					{
						OFFSET 0.000000 0.000000 0.000000
					}
				}
			}
		}
	}
	JOINT Spine
	{
		OFFSET -0.002533 0.108963 -0.026696
		CHANNELS 3 Zrotation Yrotation Xrotation
		JOINT Spine1
		{
			OFFSET 0.005487 0.135180 0.001092
			CHANNELS 3 Zrotation Yrotation Xrotation
			JOINT Spine2
			{
				OFFSET 0.001457 0.052922 0.025425
				CHANNELS 3 Zrotation Yrotation Xrotation
				JOINT Neck
				{
					OFFSET -0.002778 0.213870 -0.042857
					CHANNELS 3 Zrotation Yrotation Xrotation
					JOINT Head
					{
						OFFSET 0.005152 0.064970 0.051349
						CHANNELS 3 Zrotation Yrotation Xrotation
						End Site
						{
							OFFSET 0.000000 0.000000 0.000000
						}
					}
				}
				JOINT LeftShoulder
				{
					OFFSET 0.078845 0.121749 -0.034090
					CHANNELS 3 Zrotation Yrotation Xrotation
					JOINT LeftArm
					{
						OFFSET 0.090977 0.030469 -0.008868
						CHANNELS 3 Zrotation Yrotation Xrotation
						JOINT LeftForeArm
						{
							OFFSET 0.259612 -0.012772 -0.027456
							CHANNELS 3 Zrotation Yrotation Xrotation
							JOINT LeftHand
							{
								OFFSET 0.249234 0.008986 -0.001171
								CHANNELS 3 Zrotation Yrotation Xrotation
								End Site
								{
									OFFSET 0.000000 0.000000 0.000000
								}
							}
						}
					}
				}
				JOINT RightShoulder
				{
					OFFSET -0.081759 0.118833 -0.038615
					CHANNELS 3 Zrotation Yrotation Xrotation
					JOINT RightArm
					{
						OFFSET -0.096012 0.032551 -0.009143
						CHANNELS 3 Zrotation Yrotation Xrotation
						JOINT RightForeArm
						{
							OFFSET -0.253742 -0.013329 -0.021401
							CHANNELS 3 Zrotation Yrotation Xrotation
							JOINT RightHand
							{
								OFFSET -0.255298 0.007772 -0.005559
								CHANNELS 3 Zrotation Yrotation Xrotation
								End Site
								{
									OFFSET 0.000000 0.000000 0.000000
								}
							}
						}
					}
				}
			}
		}
	}
}
MOTION
Frames: 18
Frame Time: 0.050000
0.000000 0.939878 0.000000 0.104449 7.739789 2.445155 5.949847 0.019543 8.894086 -3.827330 0.315727 4.955426 9.140316 19.210303 12.347866 0.000000 0.000000 0.000000 -6.709137 0.597288 -17.619387 8.971235 -1.483676 6.778609 -17.276365 -33.169382 17.908230 0.000000 0.000000 0.000000 6.656446 -0.836994 6.894208 -5.800877 2.089788 -24.385460 -2.289336 1.226184 28.679779 14.044677 -4.750449 -30.913764 0.000000 0.000000 0.000000 -16.677520 -4.433957 0.025444 -49.167760 -4.050797 -6.364531 -13.269018 -23.670312 3.632077 0.000000 0.000000 0.000000 27.019266 -4.141693 -2.028312 54.264338 6.981652 -5.292772 7.749196 24.169378 2.979935 0.000000 0.000000 0.000000 
-0.022177 0.943701 0.028378 -0.139386 3.097706 3.310952 8.341879 -0.128141 7.393747 -6.141461 0.789049 10.400888 10.767804 21.504007 17.384061 0.000000 0.000000 0.000000 -4.535899 1.166507 -18.945173 9.856031 -1.687911 10.564432 -17.350570 -34.209372 15.875515 0.000000 0.000000 0.000000 7.130195 -0.688535 5.197142 -5.702220 1.994963 -24.437149 -1.868030 3.211069 28.767080 11.777302 -4.022844 -28.714686 0.000000 0.000000 0.000000 -15.386023 -2.997281 -0.305377 -50.590919 -4.242819 -6.567089 -13.598384 -23.675711 3.777554 0.000000 0.000000 0.000000 24.812959 -4.036655 -2.278192 56.644363 5.671716 -5.768668 8.595799 24.054232 3.085294 0.000000 0.000000 0.000000 
-0.044618 0.949890 0.055803 0.117005 -1.358508 3.113214 10.355055 -0.149986 3.522079 -8.561769 1.943443 20.683498 10.335946 20.680314 20.947440 0.000000 0.000000 0.000000 -2.924380 1.322939 -16.165500 9.339293 -1.300056 8.600264 -14.878387 -30.911047 14.950956 0.000000 0.000000 0.000000 7.468791 -0.718348 5.535453 -4.779080 1.703169 -25.266011 -2.354030 4.811551 29.502408 11.061822 -3.482517 -30.688739 0.000000 0.000000 0.000000 -16.856282 -2.188202 -0.522791 -50.632853 -3.212682 -7.072891 -12.035819 -23.078722 3.450053 0.000000 0.000000 0.000000 22.233338 -4.679686 -2.869587 58.582255 5.212811 -6.047788 11.599153 22.580312 3.417468 0.000000 0.000000 0.000000 
-0.065250 0.952057 0.082033 0.497754 -5.176068 1.952134 10.883498 -0.016148 -0.063932 -9.280549 3.272800 30.091401 9.422747 19.223375 21.382395 0.000000 0.000000 0.000000 -1.655075 1.109135 -11.880003 9.298053 -1.064398 6.188228 -12.879854 -28.184158 12.917250 0.000000 0.000000 0.000000 7.670450 -0.788691 6.599221 -4.990792 1.706024 -25.417573 -2.310810 6.156636 29.868248 13.051876 -4.865735 -30.203315 0.000000 0.000000 0.000000 -18.349539 -2.235606 -0.320755 -49.050865 -2.457746 -7.231721 -12.359259 -23.462322 3.622614 0.000000 0.000000 0.000000 24.107126 -3.640282 -2.749849 55.814073 6.107416 -5.528264 12.145174 23.212571 3.547333 0.000000 0.000000 0.000000 
-0.085653 0.955118 0.107069 0.851759 -10.405392 0.674328 10.013416 0.140684 -3.390113 -9.057898 4.765780 36.286619 9.686064 19.218695 18.712240 0.000000 0.000000 0.000000 0.349932 0.770904 -7.652692 7.011055 -0.602748 5.108886 -9.948637 -23.523323 9.913881 0.000000 0.000000 0.000000 6.870202 -0.748368 7.432301 -4.121735 1.433489 -25.145481 -1.503779 9.198596 30.153813 13.375146 -5.267293 -29.449795 0.000000 0.000000 0.000000 -18.520472 -2.952157 0.188583 -48.708191 -3.158821 -6.992916 -12.619801 -24.374914 3.853524 0.000000 0.000000 0.000000 24.500892 -3.608742 -2.881806 55.348135 6.526252 -5.365849 13.231848 23.877491 3.878279 0.000000 0.000000 0.000000 
-0.105153 0.957411 0.130805 1.273063 -15.887473 -0.090703 8.475623 0.174292 -6.483638 -8.230996 5.871603 38.521566 9.763740 19.192113 13.181234 0.000000 0.000000 0.000000 1.542484 0.383061 -4.306810 5.573591 -0.347476 3.657534 -6.696850 -17.800673 8.695379 0.000000 0.000000 0.000000 6.612044 -0.719410 7.954512 -4.167506 1.357756 -25.223826 -1.039628 10.805394 30.423019 13.536094 -5.747198 -29.010798 0.000000 0.000000 0.000000 -18.583831 -2.968705 0.735401 -48.791125 -4.090414 -6.782767 -12.609572 -24.599271 3.981440 0.000000 0.000000 0.000000 24.516307 -2.421665 -2.819319 55.108414 6.529032 -5.270572 13.154851 24.739252 3.914978 0.000000 0.000000 0.000000 
-0.123788 0.958411 0.152989 1.585796 -21.653917 -0.546143 6.469059 0.078758 -9.181704 -6.326920 5.777124 36.891155 9.555858 18.806580 9.199039 0.000000 0.000000 0.000000 2.627335 0.024467 -1.523939 3.814880 -0.136379 3.180706 -4.303349 -13.201648 7.318131 0.000000 0.000000 0.000000 6.165118 -0.674222 8.435420 -3.827975 1.187127 -25.328570 -0.140946 12.919426 30.708244 13.043296 -5.725853 -28.933362 0.000000 0.000000 0.000000 -18.621942 -2.700238 1.069002 -49.272962 -4.638190 -6.763306 -12.235430 -25.565657 4.176179 0.000000 0.000000 0.000000 24.227174 -1.886462 -3.046196 54.954613 7.656893 -4.672221 13.676463 26.002069 4.164227 0.000000 0.000000 0.000000 
-0.141569 0.959166 0.173751 1.812941 -26.675993 -0.548214 3.952733 -0.176908 -12.366194 -3.533462 4.241546 32.088700 8.412129 16.839029 5.690188 0.000000 0.000000 0.000000 3.377348 -0.286109 1.065236 2.496415 -0.046829 1.715425 -2.037892 -8.693200 6.373861 0.000000 0.000000 0.000000 5.745744 -0.614442 8.520922 -3.203249 0.959687 -25.263648 0.170824 14.295492 30.928707 12.888572 -5.916006 -28.969962 0.000000 0.000000 0.000000 -18.441254 -2.588870 1.544567 -49.856657 -5.655914 -6.520682 -13.339555 -26.305537 4.690633 0.000000 0.000000 0.000000 23.538209 -1.179679 -3.226890 55.121091 8.330677 -4.256435 14.338869 28.304733 4.613786 0.000000 0.000000 0.000000 
-0.158734 0.959617 0.193541 1.670595 -31.725454 -0.383159 1.116125 -0.517511 -15.358067 -1.078687 2.392099 24.821329 6.740787 13.278559 5.583974 0.000000 0.000000 0.000000 4.057882 -0.500980 3.099624 0.868965 0.028124 0.844294 0.335335 -4.745370 6.807451 0.000000 0.000000 0.000000 5.406807 -0.583432 9.161420 -2.498905 0.737177 -25.542534 0.544273 15.166762 30.973293 11.524047 -5.483009 -29.265982 0.000000 0.000000 0.000000 -19.390972 -1.999339 1.935213 -50.465197 -6.274229 -6.491174 -13.227033 -27.582074 5.086190 0.000000 0.000000 0.000000 23.469597 0.168407 -3.323727 54.737971 9.390559 -3.544957 13.853060 29.622618 4.508005 0.000000 0.000000 0.000000 
-0.176439 0.958628 0.213087 1.224200 -37.176114 -0.241662 -0.837698 -0.670376 -17.195310 0.514021 0.826015 15.504390 4.709210 8.756951 7.120743 0.000000 0.000000 0.000000 4.560251 -0.657538 5.539874 0.325109 0.047259 0.263873 2.105105 -0.691292 5.634467 0.000000 0.000000 0.000000 5.133294 -0.527410 9.306396 -1.369276 0.368542 -25.180687 0.797762 17.240363 31.141309 12.122464 -5.859911 -30.335632 0.000000 0.000000 0.000000 -18.742605 -2.675651 2.753993 -51.567639 -7.247339 -6.251971 -14.121450 -27.874568 5.477667 0.000000 0.000000 0.000000 23.372599 0.509321 -3.715763 54.928101 10.363113 -3.008446 13.918007 32.183402 4.811218 0.000000 0.000000 0.000000 
-0.196014 0.954948 0.233514 0.942761 -41.325092 -0.346608 -3.306436 -0.966435 -18.335483 1.358049 -0.109979 5.188671 3.742590 6.203250 10.100424 0.000000 0.000000 0.000000 5.127282 -0.720248 7.502970 -0.569895 0.083553 0.270086 3.466844 2.601314 4.788649 0.000000 0.000000 0.000000 4.651424 -0.463477 10.310620 -1.250462 0.304696 -25.371587 0.715340 17.592155 31.019033 12.131222 -6.319714 -29.825956 0.000000 0.000000 0.000000 -18.921986 -2.493220 3.330237 -51.827716 -8.546678 -5.821430 -12.587807 -28.176416 5.258630 0.000000 0.000000 0.000000 23.271928 1.158828 -4.257818 55.580086 10.254040 -2.846429 14.814579 33.080905 4.932395 0.000000 0.000000 0.000000 
-0.218247 0.948748 0.254673 0.101119 -44.690563 -0.095191 -3.933651 -0.931526 -18.614924 1.491781 -0.199068 -0.331104 2.852916 4.129533 12.623394 0.000000 0.000000 0.000000 5.313541 -0.673628 10.368108 -0.140834 0.079809 0.223142 3.929204 4.890302 3.394227 0.000000 0.000000 0.000000 4.198007 -0.399593 10.769020 -0.398682 -0.046776 -24.333816 -0.632837 18.540381 30.141082 13.116968 -7.020268 -29.793369 0.000000 0.000000 0.000000 -17.579308 -3.146807 3.826411 -53.030604 -10.094409 -5.086800 -10.587820 -28.259226 4.782771 0.000000 0.000000 0.000000 25.392613 2.474739 -4.511938 55.112986 9.981842 -2.600171 13.784269 33.873096 4.630903 0.000000 0.000000 0.000000 
-0.243465 0.941203 0.277029 -0.803260 -47.965645 0.265939 -4.044787 -0.795307 -18.823253 1.427516 -0.164137 1.747130 4.310410 6.140614 12.785824 0.000000 0.000000 0.000000 5.773168 -0.604461 11.400956 -0.553759 0.245453 3.131289 3.183457 5.787284 1.203431 0.000000 0.000000 0.000000 2.915202 -0.271278 10.609448 -0.280259 -0.198731 -23.602226 -0.063776 18.123491 29.678232 11.137079 -6.404930 -29.112951 0.000000 0.000000 0.000000 -17.937436 -2.432894 4.039047 -52.814521 -10.572173 -4.843024 -9.828539 -28.651099 4.753610 0.000000 0.000000 0.000000 25.963735 4.206294 -4.726928 54.152003 9.201437 -2.428766 13.454411 34.007779 4.228396 0.000000 0.000000 0.000000 
-0.272004 0.934167 0.300733 -1.841134 -50.740661 1.334824 -3.761904 -0.612389 -18.814244 0.608011 0.187151 5.032644 5.821965 8.121018 14.091328 0.000000 0.000000 0.000000 5.648950 -0.419739 12.824788 -1.001009 0.455119 5.461598 3.423984 7.625374 0.105184 0.000000 0.000000 0.000000 2.095248 -0.211201 9.808823 -0.217495 -0.340694 -22.778748 -0.490549 18.625594 28.800181 10.747430 -6.405525 -28.696928 0.000000 0.000000 0.000000 -18.033283 -3.269742 4.798532 -51.529855 -10.445358 -4.883232 -8.126989 -28.593821 4.261587 0.000000 0.000000 0.000000 26.909489 4.635547 -5.295317 53.970369 7.906962 -2.672901 14.493000 33.477264 4.292809 0.000000 0.000000 0.000000 
-0.302592 0.933287 0.326059 -1.988959 -52.574295 1.359992 -3.080541 -0.423604 -18.351795 -1.081531 1.102549 9.013165 7.145701 10.541512 12.795709 0.000000 0.000000 0.000000 5.274527 -0.188686 13.948178 -1.523362 0.798523 8.244679 4.606974 7.393388 2.185135 0.000000 0.000000 0.000000 1.060612 -0.148185 8.596416 -0.856401 -0.183554 -23.209849 -0.226972 17.865163 29.618912 11.276834 -6.902234 -29.250889 0.000000 0.000000 0.000000 -17.843677 -3.655518 5.485658 -51.025482 -10.450509 -4.904982 -7.344550 -27.885376 3.940073 0.000000 0.000000 0.000000 27.233663 4.203190 -6.673539 55.549536 6.965350 -2.969419 15.871474 31.934416 4.193236 0.000000 0.000000 0.000000 
-0.332614 0.938493 0.352405 -1.319687 -53.316072 0.477523 -3.458935 -0.648870 -16.166689 -1.159207 1.461477 10.877606 6.610680 10.026990 11.600954 0.000000 0.000000 0.000000 3.962788 -0.135164 11.142089 -0.175549 2.160562 17.249132 6.070340 6.710640 5.296346 0.000000 0.000000 0.000000 -0.396157 -0.024341 7.875475 -0.855645 -0.189452 -22.928843 -0.389051 16.939922 29.759077 10.706385 -6.808588 -29.290820 0.000000 0.000000 0.000000 -17.229155 -4.319556 6.009389 -51.295274 -11.209666 -4.531338 -4.480136 -27.449352 3.186272 0.000000 0.000000 0.000000 26.083467 3.343653 -7.371970 56.819979 6.066659 -3.599548 17.077174 29.946008 4.047960 0.000000 0.000000 0.000000 
-0.359494 0.946719 0.379027 -1.054196 -54.971223 -0.578308 -3.415542 -0.761088 -12.726620 -2.196143 1.961216 11.061581 6.880691 10.673879 11.280242 0.000000 0.000000 0.000000 0.441106 0.173957 5.484645 6.491222 4.223802 30.616911 5.332269 2.062609 8.749524 0.000000 0.000000 0.000000 -0.957681 0.029936 7.691290 -1.097130 -0.321491 -21.434014 -0.726770 15.834233 28.527925 10.239733 -6.910513 -28.074750 0.000000 0.000000 0.000000 -16.520968 -4.658427 6.310708 -51.626410 -10.952673 -4.358432 -5.164676 -28.227914 3.476629 0.000000 0.000000 0.000000 25.261366 3.543392 -7.673679 57.256805 4.558929 -4.226077 18.500776 29.768557 4.145970 0.000000 0.000000 0.000000 
-0.383275 0.952216 0.404817 -1.899697 -54.952161 -0.253471 -3.680629 -0.826145 -9.494482 -1.705598 1.545884 9.491259 6.916750 10.509088 12.349775 0.000000 0.000000 0.000000 -1.819269 0.408421 -0.925746 14.519095 5.040488 41.085811 -0.558745 -9.778582 12.253680 0.000000 0.000000 0.000000 -0.757701 0.007097 7.716877 -1.471218 -0.210281 -21.858674 -1.352428 13.736316 28.664353 9.208145 -6.714384 -27.897938 0.000000 0.000000 0.000000 -15.123399 -5.386176 6.701338 -52.117601 -11.245686 -3.922171 -5.494799 -28.551523 3.592875 0.000000 0.000000 0.000000 24.409615 3.714826 -8.138970 57.586285 2.987932 -4.934714 20.359320 31.020499 4.484452 0.000000 0.000000 0.000000 
